<svg xmlns="http://www.w3.org/2000/svg" viewBox="0 0 32 32" width="32" height="32">
  <!-- Background circle -->
  <circle cx="16" cy="16" r="15" fill="#6366f1" stroke="#4f46e5" stroke-width="1"/>
  
  <!-- Brain shape -->
  <path d="M10 12c0-3 2-5 5-5s5 2 5 5c1-1 3 0 3 2s-1 3-2 4c0 2-1 4-3 4h-6c-2 0-3-2-3-4-1-1-2-2-2-4s2-3 3-2z" 
        fill="white" stroke="#6366f1" stroke-width="0.5"/>
  
  <!-- Brain details -->
  <path d="M12 14c0 1 1 2 2 2s2-1 2-2" fill="none" stroke="#6366f1" stroke-width="0.5"/>
  <path d="M16 14c0 1 1 2 2 2s2-1 2-2" fill="none" stroke="#6366f1" stroke-width="0.5"/>
  <path d="M11 17c1 0 2 0 3 1s2 1 3 1 2 0 3-1" fill="none" stroke="#6366f1" stroke-width="0.5"/>
</svg>
